# xmcd
#
# Track frame offsets:
#	150
#	13102
#	25030
#	37477
#	48587
#	61855
#	74390
#	87220
#	98862
#	113135
#	124775
#	136922
#	148635
#	162207
#
# Disc length: 2321 seconds
#
# Revision: 2
# Processed by: cddbd v1.4PL0 Copyright (c) Steve Scherf et al.
# Submitted via: audiograbber 1.81.03
#
DISCID=c2090f0e
DTITLE=Various Artist - Country Greatest 4
DYEAR=1993
DGENRE=Country
TTITLE0=Kenny Rogers - Ruby don't take your love to town
TTITLE1=Johnny Cash - You're the nearest thing to heaven
TTITLE2=Johnny Paycheck - I'm not looking back anymore
TTITLE3=Burrito Brothers - My shoes keep walking to you
TTITLE4=Lynn Anderson - Rose garden
TTITLE5=Charley Pride - Crystal chandeliers (live)
TTITLE6=Bobby Bare - Tender years
TTITLE7=Patsy Cline - Walkin' after midnight
TTITLE8=George Jones - It's a good year for the roses
TTITLE9=Willie Nelson - End of understanding
TTITLE10=Waylon Jennings - Don't think twice
TTITLE11=Lovin' Spoonful - Nashvile cats
TTITLE12=Jerry Lee Lewis - Cold cold heart
TTITLE13=Anita Perras - One smokey rose
EXTD=
EXTT0=
EXTT1=
EXTT2=
EXTT3=
EXTT4=
EXTT5=
EXTT6=
EXTT7=
EXTT8=
EXTT9=
EXTT10=
EXTT11=
EXTT12=
EXTT13=
PLAYORDER=
